<svg width="250" height="67" viewBox="0 0 250 67" fill="none" xmlns="http://www.w3.org/2000/svg">
<path fill-rule="evenodd" clip-rule="evenodd" d="M131.169 55.9704C132.391 55.9704 132.59 56.9661 132.365 58.0257C132.153 59.0469 131.497 60.049 130.327 59.9915C129.292 59.9724 128.997 59.0788 129.196 58.1342C129.453 56.8959 130.006 55.9513 131.169 55.9704ZM124.71 63.5659C124.6 64.9637 125.764 66.3105 129.19 66.3105C133.965 66.3105 134.769 64.0701 135.366 61.2106L136.973 53.5258H133.586L133.323 54.7832C132.834 53.8513 131.87 53.2513 130.7 53.2513C127.518 53.2513 125.847 55.747 125.352 58.0959C124.845 60.5405 125.944 62.6149 128.63 62.6149C130.019 62.6149 130.957 62.1234 131.626 61.5745L131.459 62.3595C131.176 63.7255 130.629 64.2169 129.517 64.2169C129.125 64.2169 128.868 64.1276 128.733 63.9808C128.598 63.834 128.56 63.6744 128.579 63.5659H124.71Z" fill="#009B67"/>
<path d="M152.984 63.068H156.834L157.529 59.7745C157.959 57.7129 158.904 56.9853 160.479 56.9853C160.742 56.9853 161 57.0619 161.257 57.0938L162.047 53.3088C161.887 53.2896 161.726 53.2513 161.559 53.2513C160.061 53.2513 158.968 53.9662 158.114 55.4598H158.081L158.486 53.5258H154.983L152.984 63.068Z" fill="#009B67"/>
<path fill-rule="evenodd" clip-rule="evenodd" d="M185.09 55.8044C186.099 55.747 186.51 56.8065 186.215 58.2044C185.836 60.0107 185.045 60.7958 184.004 60.7958C183.027 60.7958 182.5 60.0107 182.879 58.2044C183.104 57.1321 183.772 55.8044 185.09 55.8044ZM178.99 58.4086C178.302 61.6702 180.359 63.3425 183.47 63.3425C186.581 63.3425 189.332 61.7021 190.065 58.2044C190.688 55.2364 188.992 53.2513 185.566 53.2513C182.288 53.2513 179.684 55.096 178.99 58.4086Z" fill="#009B67"/>
<path fill-rule="evenodd" clip-rule="evenodd" d="M219.606 53.5258H215.756L214.792 58.115C214.483 59.5894 213.963 60.4128 212.851 60.4128C211.925 60.4128 211.552 59.9915 211.822 58.683L212.902 53.5258H209.052L207.837 59.3341C207.265 62.0659 208.371 63.3424 210.479 63.3424C212.073 63.3424 213.095 62.9786 214.329 61.6702L214.034 63.068H217.607L219.606 53.5258Z" fill="#009B67"/>
<path fill-rule="evenodd" clip-rule="evenodd" d="M237.616 53.5258L234.942 66.3105H238.792L239.667 62.1234C240.149 62.9276 240.836 63.3425 241.891 63.3425C244.057 63.3425 246.711 61.9766 247.495 58.2235C248.048 55.6002 247.135 53.2513 244.205 53.2513C243.099 53.2513 241.595 53.7811 240.817 54.9492H240.779L241.081 53.5258H237.616ZM241.518 60.4447C240.522 60.4447 240.136 59.5384 240.412 58.2044C240.682 56.9342 241.492 56.0598 242.418 56.0598C243.433 56.0598 243.954 56.7682 243.639 58.281C243.362 59.5894 242.533 60.4447 241.518 60.4447Z" fill="#009B67"/>
<path d="M103.28 35.6605C101.937 39.4008 98.8322 41.0156 93.6195 41.0156C87.5904 41.0156 83.4318 38.5327 83.4318 32.2265C83.4318 25.914 87.7061 23.4375 94.4422 23.4375C100.825 23.4375 102.811 26.6544 103.28 28.8756H121.907C119.741 16.5632 104.398 15.6058 94.4422 15.6058C84.428 15.6058 65.8652 16.1292 65.8652 32.2265C65.8652 48.3239 84.428 48.8473 94.4422 48.8473C104.514 48.8473 110.839 47.5835 114.875 45.3176C118.976 43.0581 120.853 39.7518 121.907 35.6605H103.28Z" fill="#ED1B2D"/>
<path d="M129.273 47.7558H144.269V25.5693H144.385L153.171 47.7558H165.698L174.485 25.5693H174.601V47.7558H189.596V16.6973H166.348L159.496 34.7477H159.374L152.522 16.6973H129.273V47.7558Z" fill="#ED1B2D"/>
<path fill-rule="evenodd" clip-rule="evenodd" d="M199.205 47.7558H215.717V38.188H227.429C230.475 38.188 231.529 39.5795 231.703 41.8836C231.999 45.4963 231.999 46.8431 232.583 47.7558H250.619C249.565 46.7984 248.749 45.4963 248.569 44.1048L247.868 37.3136C247.579 34.6201 245.586 33.0499 243.125 32.5329V32.4435C247.926 31.3968 249.565 28.2692 249.565 25.3523C249.565 21.9567 246.988 18.9568 243.89 17.827C241.601 16.9973 238.735 16.6973 233.991 16.6973H199.205V47.7558ZM215.717 24.5225H227.197C229.948 24.5225 231.999 25.0906 231.999 27.4395C231.999 29.399 230.655 30.3564 227.429 30.3564H215.717V24.5225Z" fill="#ED1B2D"/>
<path fill-rule="evenodd" clip-rule="evenodd" d="M47.3347 57.4895C42.3726 55.3832 38.6382 52.8811 35.6879 49.1855C32.5448 50.4174 30.2438 52.9003 30.2438 52.9003C35.4758 55.1087 40.7786 56.4874 47.3347 57.4895ZM9.27707 32.1308C9.99053 40.0837 16.3795 46.1601 26.985 51.1067C29.2282 49.2238 31.5486 47.6728 34.0682 46.409C30.8094 41.6028 29.7874 38.4306 28.6112 32.1308H9.27707ZM9.23208 29.2266L28.6883 29.3862C28.4376 23.4375 30.1602 19.3589 32.8405 14.8463C30.2695 13.5761 25.2367 10.1932 25.2367 10.1932C15.3575 15.1845 9.48275 21.446 9.23208 29.2266ZM66.2253 60.0426C64.8819 60.0873 63.5257 60.1064 62.1502 60.1064C28.2255 60.1064 0.619141 47.3728 0.619141 30.3691C0.619141 14.6739 23.9062 2.54668 54.1993 0.651001L55.4334 2.69348C45.3935 3.45303 35.6301 5.30403 28.2577 8.63583C30.353 10.2762 32.6413 11.0613 34.9937 12.2357C35.5851 11.623 35.4565 11.7123 36.1764 11.0996C38.1818 9.39538 44.8729 4.62108 52.496 6.31251C58.0558 7.54438 59.7206 8.38691 60.4983 8.34223C60.7554 8.34861 61.1025 8.25287 61.6553 8.08054L61.1604 10.589C60.8968 10.6464 60.6012 10.6656 60.2412 10.6528C58.2037 10.5762 58.3129 9.70176 53.8908 8.56563C47.8103 7.01461 40.5793 13.1676 40.0265 13.8569C45.2907 15.5994 52.0396 16.8313 59.6177 16.8313C61.1218 16.8313 62.523 16.793 63.8535 16.71L60.839 19.4674C59.9777 19.4865 59.1035 19.4929 58.2101 19.4929C50.677 19.4929 44.5001 19.0844 37.9504 16.8377C35.3537 20.8907 34.396 24.8608 34.4346 29.3862H54.1222L55.5941 32.1244L34.5117 32.1308C34.5117 32.1308 34.4795 36.4711 38.8439 44.7559C43.7674 43.1347 50.1307 41.8198 57.3681 41.5709C58.4479 41.5326 59.5406 41.5134 60.6333 41.5134L62.4652 44.9282C61.546 44.9282 60.5819 44.941 59.5663 44.9793C51.9818 45.2346 45.7792 46.2431 41.0935 47.8579C45.3743 54.5981 51.4933 58.9448 61.4046 58.6001C62.6708 58.6001 63.8535 58.5235 64.9655 58.3703L66.2253 60.0426Z" fill="#009B67"/>
</svg>
